<svg width="100" height="110" viewBox="0 0 100 110" fill="none" xmlns="http://www.w3.org/2000/svg">
<g filter="url(#filter0_d_1359_2634)">
<path d="M85.9375 19.5H73.4375V13.25C75.1634 13.25 76.5625 11.8509 76.5625 10.125C76.5625 8.39906 75.1634 7 73.4375 7H26.5625C24.8366 7 23.4375 8.39906 23.4375 10.125C23.4375 11.8509 24.8366 13.25 26.5625 13.25V19.5H14.0625C12.3438 19.5 10.9375 20.9062 10.9375 22.625V25.75C10.9375 36.7656 18.4375 46.375 29.125 49.0469L30.2656 49.3281H30.2812C33.6089 54.5306 38.952 58.327 45.2164 59.64C44.9183 64.112 43.8723 68.5031 42.1081 72.625H34.375C32.6562 72.625 31.25 74.0312 31.25 75.75V88.25C29.5241 88.25 28.125 89.6491 28.125 91.375V94.5H71.875V91.375C71.875 89.6491 70.4759 88.25 68.75 88.25V75.75C68.75 74.0312 67.3438 72.625 65.625 72.625H57.8919C56.1278 68.5031 55.0817 64.112 54.7836 59.64C61.048 58.327 66.3911 54.5306 69.7188 49.3281H69.7344L70.875 49.0469C81.5625 46.375 89.0625 36.7656 89.0625 25.75V22.625C89.0625 20.9062 87.6562 19.5 85.9375 19.5ZM57.8125 80.4375C57.8125 81.2969 57.1094 82 56.25 82H43.75C42.8906 82 42.1875 81.2969 42.1875 80.4375C42.1875 79.5781 42.8906 78.875 43.75 78.875H56.25C57.1094 78.875 57.8125 79.5781 57.8125 80.4375ZM17.1875 25.75H26.5625V36.6875C26.5625 38.4062 26.75 40.0625 27.0938 41.6719C21.125 38.75 17.1875 32.625 17.1875 25.75ZM55.7969 42.4844L50 39.4375L44.2031 42.4844L45.3125 36.0312L40.625 31.4531L47.1094 30.5156L50 24.6406L52.8906 30.5156L59.375 31.4531L54.6875 36.0312L55.7969 42.4844ZM72.9062 41.6719C73.25 40.0625 73.4375 38.4062 73.4375 36.6875V25.75H82.8125C82.8125 32.625 78.875 38.75 72.9062 41.6719Z" fill="#FBBC04"/>
</g>
<defs>
<filter id="filter0_d_1359_2634" x="0.3375" y="0.4" width="99.325" height="108.7" filterUnits="userSpaceOnUse" color-interpolation-filters="sRGB">
<feFlood flood-opacity="0" result="BackgroundImageFix"/>
<feColorMatrix in="SourceAlpha" type="matrix" values="0 0 0 0 0 0 0 0 0 0 0 0 0 0 0 0 0 0 127 0" result="hardAlpha"/>
<feOffset dy="4"/>
<feGaussianBlur stdDeviation="5.3"/>
<feComposite in2="hardAlpha" operator="out"/>
<feColorMatrix type="matrix" values="0 0 0 0 1 0 0 0 0 1 0 0 0 0 1 0 0 0 0.25 0"/>
<feBlend mode="normal" in2="BackgroundImageFix" result="effect1_dropShadow_1359_2634"/>
<feBlend mode="normal" in="SourceGraphic" in2="effect1_dropShadow_1359_2634" result="shape"/>
</filter>
</defs>
</svg>
